<svg width="47" height="54" viewBox="0 0 47 54" fill="none" xmlns="http://www.w3.org/2000/svg">
<path d="M32.9 32.0625C29.8885 32.0625 28.442 33.75 23.5 33.75C18.558 33.75 17.1219 32.0625 14.1 32.0625C6.31541 32.0625 0 38.4109 0 46.2375V48.9375C0 51.732 2.256 54 5.03596 54H41.964C44.744 54 47 51.732 47 48.9375V46.2375C47 38.4126 40.6846 32.0625 32.9 32.0625ZM41.964 48.9375H5.03596V46.2375C5.03596 41.2172 9.10582 37.125 14.1 37.125C15.6319 37.125 18.1176 38.8125 23.5 38.8125C28.9241 38.8125 31.3577 37.125 32.9 37.125C37.8942 37.125 41.964 41.2172 41.964 46.2375V48.9375ZM23.5 30.375C31.8399 30.375 38.6079 23.5727 38.6079 15.1875C38.6079 6.80231 31.8381 0 23.5 0C15.1619 0 8.39211 6.80231 8.39211 15.1875C8.39211 23.5727 15.1601 30.375 23.5 30.375ZM23.5 5.0625C29.0495 5.0625 33.5719 9.60862 33.5719 15.1875C33.5719 20.7664 29.0495 25.3125 23.5 25.3125C17.9505 25.3125 13.4281 20.7664 13.4281 15.1875C13.4281 9.60862 17.9505 5.0625 23.5 5.0625Z" fill="white"/>
</svg>
