<svg width="192" height="26" viewBox="0 0 192 26" fill="none" xmlns="http://www.w3.org/2000/svg">
<path d="M7.17578 0.40625L13.75 18.9688L20.2891 0.40625H27.2148V26H21.9238V19.0039L22.4512 6.92773L15.543 26H11.9219L5.03125 6.94531L5.55859 19.0039V26H0.285156V0.40625H7.17578ZM47.2188 14.9082H37.0938V21.7637H48.9766V26H31.8203V0.40625H48.9414V4.67773H37.0938V10.7773H47.2188V14.9082ZM52.0703 26V0.40625H59.9453C62.1953 0.40625 64.2051 0.916016 65.9746 1.93555C67.7559 2.94336 69.1445 4.38477 70.1406 6.25977C71.1367 8.12305 71.6348 10.2441 71.6348 12.623V13.8008C71.6348 16.1797 71.1426 18.2949 70.1582 20.1465C69.1855 21.998 67.8086 23.4336 66.0273 24.4531C64.2461 25.4727 62.2363 25.9883 59.998 26H52.0703ZM57.3438 4.67773V21.7637H59.8926C61.9551 21.7637 63.5312 21.0898 64.6211 19.7422C65.7109 18.3945 66.2676 16.4668 66.291 13.959V12.6055C66.291 10.0039 65.752 8.03516 64.6738 6.69922C63.5957 5.35156 62.0195 4.67773 59.9453 4.67773H57.3438Z" fill="#5271FF"/>
<path d="M90.8828 15.541H80.7578V26H75.4844V0.40625H92.1484V4.67773H80.7578V11.2871H90.8828V15.541ZM104.682 16.6309H100.48V26H95.207V0.40625H104.717C107.74 0.40625 110.072 1.08008 111.713 2.42773C113.354 3.77539 114.174 5.67969 114.174 8.14062C114.174 9.88672 113.793 11.3457 113.031 12.5176C112.281 13.6777 111.139 14.6035 109.604 15.2949L115.141 25.7539V26H109.48L104.682 16.6309ZM100.48 12.3594H104.734C106.059 12.3594 107.084 12.0254 107.811 11.3574C108.537 10.6777 108.9 9.74609 108.9 8.5625C108.9 7.35547 108.555 6.40625 107.863 5.71484C107.184 5.02344 106.135 4.67773 104.717 4.67773H100.48V12.3594ZM132.648 20.7266H123.402L121.645 26H116.037L125.564 0.40625H130.451L140.031 26H134.424L132.648 20.7266ZM124.826 16.4551H131.225L128.008 6.875L124.826 16.4551ZM149.312 0.40625L155.887 18.9688L162.426 0.40625H169.352V26H164.061V19.0039L164.588 6.92773L157.68 26H154.059L147.168 6.94531L147.695 19.0039V26H142.422V0.40625H149.312ZM189.355 14.9082H179.23V21.7637H191.113V26H173.957V0.40625H191.078V4.67773H179.23V10.7773H189.355V14.9082Z" fill="white"/>
</svg>
